<svg width="20" height="20" viewBox="0 0 20 20" fill="none" xmlns="http://www.w3.org/2000/svg">
<path d="M8.53906 1.62891C8.10938 2.05859 8.15234 2.70312 8.53906 3.13281L13.7383 8.03125H1.40625C0.804688 8.03125 0.375 8.50391 0.375 9.0625V10.4375C0.375 11.0391 0.804688 11.4688 1.40625 11.4688H13.7383L8.53906 16.4102C8.15234 16.8398 8.15234 17.4844 8.53906 17.9141L9.48438 18.8594C9.91406 19.2461 10.5586 19.2461 10.9453 18.8594L19.3242 10.4805C19.7109 10.0938 19.7109 9.44922 19.3242 9.01953L10.9453 0.683594C10.5586 0.296875 9.91406 0.296875 9.48438 0.683594L8.53906 1.62891Z" fill="white"/>
</svg>
