<svg width="32" height="29" viewBox="0 0 32 29" fill="none" xmlns="http://www.w3.org/2000/svg">
<path d="M1.375 5.78125H30.625C31.1875 5.78125 31.75 5.28906 31.75 4.65625V1.84375C31.75 1.28125 31.1875 0.71875 30.625 0.71875H1.375C0.742188 0.71875 0.25 1.28125 0.25 1.84375V4.65625C0.25 5.28906 0.742188 5.78125 1.375 5.78125ZM1.375 17.0312H30.625C31.1875 17.0312 31.75 16.5391 31.75 15.9062V13.0938C31.75 12.5312 31.1875 11.9688 30.625 11.9688H1.375C0.742188 11.9688 0.25 12.5312 0.25 13.0938V15.9062C0.25 16.5391 0.742188 17.0312 1.375 17.0312ZM1.375 28.2812H30.625C31.1875 28.2812 31.75 27.7891 31.75 27.1562V24.3438C31.75 23.7812 31.1875 23.2188 30.625 23.2188H1.375C0.742188 23.2188 0.25 23.7812 0.25 24.3438V27.1562C0.25 27.7891 0.742188 28.2812 1.375 28.2812Z" fill="white"/>
</svg>
