<svg width="22" height="17" viewBox="0 0 22 17" fill="none" xmlns="http://www.w3.org/2000/svg">
<path d="M20.9688 0.5H20.625V1.35938C20.625 1.66016 20.3672 1.875 20.1094 1.875H18.3906C18.0898 1.875 17.875 1.66016 17.875 1.35938V0.5H4.125V1.35938C4.125 1.66016 3.86719 1.875 3.60938 1.875H1.89062C1.58984 1.875 1.375 1.66016 1.375 1.35938V0.5H1.03125C0.429688 0.5 0 0.972656 0 1.53125V15.9688C0 16.5703 0.429688 17 1.03125 17H1.375V16.1406C1.375 15.8828 1.58984 15.625 1.89062 15.625H3.60938C3.86719 15.625 4.125 15.8828 4.125 16.1406V17H17.875V16.1406C17.875 15.8828 18.0898 15.625 18.3906 15.625H20.1094C20.3672 15.625 20.625 15.8828 20.625 16.1406V17H20.9688C21.5273 17 22 16.5703 22 15.9688V1.53125C22 0.972656 21.5273 0.5 20.9688 0.5ZM4.125 13.7344C4.125 14.0352 3.86719 14.25 3.60938 14.25H1.89062C1.58984 14.25 1.375 14.0352 1.375 13.7344V12.0156C1.375 11.7578 1.58984 11.5 1.89062 11.5H3.60938C3.86719 11.5 4.125 11.7578 4.125 12.0156V13.7344ZM4.125 9.60938C4.125 9.91016 3.86719 10.125 3.60938 10.125H1.89062C1.58984 10.125 1.375 9.91016 1.375 9.60938V7.89062C1.375 7.63281 1.58984 7.375 1.89062 7.375H3.60938C3.86719 7.375 4.125 7.63281 4.125 7.89062V9.60938ZM4.125 5.48438C4.125 5.78516 3.86719 6 3.60938 6H1.89062C1.58984 6 1.375 5.78516 1.375 5.48438V3.76562C1.375 3.50781 1.58984 3.25 1.89062 3.25H3.60938C3.86719 3.25 4.125 3.50781 4.125 3.76562V5.48438ZM15.8125 14.4219C15.8125 14.7227 15.5547 14.9375 15.2969 14.9375H6.70312C6.40234 14.9375 6.1875 14.7227 6.1875 14.4219V10.2969C6.1875 10.0391 6.40234 9.78125 6.70312 9.78125H15.2969C15.5547 9.78125 15.8125 10.0391 15.8125 10.2969V14.4219ZM15.8125 7.20312C15.8125 7.50391 15.5547 7.71875 15.2969 7.71875H6.70312C6.40234 7.71875 6.1875 7.50391 6.1875 7.20312V3.07812C6.1875 2.82031 6.40234 2.5625 6.70312 2.5625H15.2969C15.5547 2.5625 15.8125 2.82031 15.8125 3.07812V7.20312ZM20.625 13.7344C20.625 14.0352 20.3672 14.25 20.1094 14.25H18.3906C18.0898 14.25 17.875 14.0352 17.875 13.7344V12.0156C17.875 11.7578 18.0898 11.5 18.3906 11.5H20.1094C20.3672 11.5 20.625 11.7578 20.625 12.0156V13.7344ZM20.625 9.60938C20.625 9.91016 20.3672 10.125 20.1094 10.125H18.3906C18.0898 10.125 17.875 9.91016 17.875 9.60938V7.89062C17.875 7.63281 18.0898 7.375 18.3906 7.375H20.1094C20.3672 7.375 20.625 7.63281 20.625 7.89062V9.60938ZM20.625 5.48438C20.625 5.78516 20.3672 6 20.1094 6H18.3906C18.0898 6 17.875 5.78516 17.875 5.48438V3.76562C17.875 3.50781 18.0898 3.25 18.3906 3.25H20.1094C20.3672 3.25 20.625 3.50781 20.625 3.76562V5.48438Z" fill="#F46D1B"/>
</svg>
